<?xml version="1.0" encoding="utf-8"?>
<!-- Generator: Adobe Illustrator 28.1.0, SVG Export Plug-In . SVG Version: 6.00 Build 0)  -->
<svg version="1.1"
	 id="Calque_1" xmlns:cc="http://creativecommons.org/ns#" xmlns:rdf="http://www.w3.org/1999/02/22-rdf-syntax-ns#" xmlns:sodipodi="http://sodipodi.sourceforge.net/DTD/sodipodi-0.dtd" xmlns:inkscape="http://www.inkscape.org/namespaces/inkscape" xmlns:dc="http://purl.org/dc/elements/1.1/" xmlns:svg="http://www.w3.org/2000/svg"
	 xmlns="http://www.w3.org/2000/svg" xmlns:xlink="http://www.w3.org/1999/xlink" x="0px" y="0px" viewBox="0 0 100 125"
	 style="enable-background:new 0 0 100 125;" xml:space="preserve">
<style type="text/css">
	.st0{fill:#B3848F;}
</style>
<g transform="translate(0,-952.36218)">
	<path class="st0" d="M4,1002.4c0,25.3,20.7,46,46,46c25.3,0,46-20.7,46-46c0-25.3-20.7-46-46-46C24.7,956.4,4,977,4,1002.4z
		 M14,1002.4c0-19.9,16.1-36,36-36c19.9,0,36,16.1,36,36c0,19.9-16.1,36-36,36C30.1,1038.4,14,1022.3,14,1002.4z M28.2,1002.4
		l3.1,3.4l24,26l7.3-6.8l-20.8-22.6l20.8-22.6l-7.3-6.8l-24,26L28.2,1002.4L28.2,1002.4z"/>
</g>
</svg>
